<?xml version="1.0" encoding="UTF-8"?>
<svg id="Layer_1" xmlns="http://www.w3.org/2000/svg" version="1.1" viewBox="0 0 169.78 61.22">
  <!-- Generator: Adobe Illustrator 29.8.3, SVG Export Plug-In . SVG Version: 2.1.1 Build 3)  -->
  <defs>
    <style>
      .st0 {
        stroke-width: .61px;
      }

      .st0, .st1, .st2 {
        fill: none;
      }

      .st0, .st2 {
        stroke: #5c728b;
        stroke-miterlimit: 10;
      }

      .st3 {
        fill: #fff;
      }

      .st2 {
        stroke-width: .54px;
      }

      .st4 {
        fill: #5c728b;
      }
    </style>
  </defs>
  <g>
    <g>
      <path class="st2" d="M88,22.82c-.37-.31-.66-.71-.84-1.23-.19-.51-.28-1.06-.28-1.64h.47c0,.67.1,1.21.3,1.62.2.42.46.74.77.97.31.23.64.38,1,.46.36.08.7.11,1.01.11.39,0,.77-.05,1.16-.16.38-.1.73-.27,1.03-.5.31-.23.55-.53.74-.91.19-.37.28-.83.28-1.37,0-.62-.1-1.17-.29-1.63-.19-.46-.45-.88-.78-1.24-.32-.36-.69-.68-1.09-.97-.4-.28-.82-.56-1.24-.84-.41-.26-.79-.52-1.16-.78-.37-.26-.7-.54-1-.86-.66-.74-.99-1.55-.99-2.46v-.32c0-.17.03-.38.08-.61.05-.24.14-.49.26-.77.12-.28.31-.53.56-.77.59-.58,1.4-.87,2.45-.87s1.87.29,2.41.87c.23.25.39.52.49.82.1.3.16.58.19.85.03.27.04.5.03.69,0,.19,0,.29,0,.3h-.47c.01-.33,0-.62-.02-.87-.03-.25-.09-.51-.17-.78-.08-.27-.22-.51-.42-.72-.22-.24-.5-.42-.84-.54-.33-.12-.73-.19-1.2-.19-.92,0-1.62.24-2.1.73-.21.21-.37.44-.48.69-.11.25-.18.48-.23.7-.04.22-.07.48-.07.78,0,.46.08.86.25,1.22.17.35.38.68.66.98.27.3.58.57.94.82.35.25.72.5,1.09.75.44.28.87.57,1.29.87.42.31.81.65,1.15,1.04.78.89,1.18,1.93,1.18,3.12,0,1.12-.41,2-1.22,2.62-.66.5-1.49.75-2.47.75-.35,0-.74-.04-1.18-.13-.44-.09-.86-.29-1.25-.59Z"/>
      <path class="st2" d="M104.49,20.1v.33c0,.18-.03.4-.09.66-.06.26-.15.53-.28.82-.13.29-.32.56-.57.81-.59.57-1.39.85-2.41.85s-1.79-.29-2.36-.85c-.25-.25-.45-.53-.57-.83-.13-.3-.21-.59-.26-.86-.05-.27-.07-.5-.07-.7v-8.88c0-.56.09-1.05.26-1.49.17-.44.44-.81.82-1.11.3-.25.64-.44,1.01-.57.38-.13.77-.2,1.17-.2s.8.06,1.18.19c.38.12.72.31,1.02.54.76.62,1.15,1.51,1.15,2.64v8.66ZM104.02,11.44c0-.54-.09-1-.26-1.37-.17-.37-.4-.68-.68-.91-.28-.23-.59-.4-.94-.5-.35-.1-.69-.16-1.02-.16s-.69.06-1.03.18c-.34.12-.64.29-.89.53-.26.24-.46.54-.62.92-.16.37-.24.81-.24,1.31v8.55c-.02.35,0,.65.05.9.04.25.12.51.23.79.11.28.27.53.5.75.47.47,1.14.71,2.01.71s1.58-.24,2.08-.73c.23-.22.39-.46.5-.73.11-.26.18-.51.23-.74.04-.23.07-.5.07-.82l.02-8.68Z"/>
      <path class="st2" d="M109.49,9.53v13.84h-.49v-15.13h.4l6.48,13.84.02-13.84h.47v15.13h-.41l-6.48-13.84ZM109.33,8.24h-.16.16ZM116.21,23.36h-.16.16Z"/>
      <path class="st2" d="M126.81,8.26h.52l-3.15,7.37v7.72h-.47v-7.72l-3.15-7.37h.52l2.87,6.72,2.87-6.72Z"/>
      <path class="st2" d="M138.35,8.28h.61l-4.17,6.2s.05.03.06.04c0,.01.02.03.03.04l4.77,8.72h-.54l-4.59-8.39-2.38,3.6v4.85h-.47v-15.09h.47v9.39l6.21-9.36Z"/>
      <path class="st2" d="M150.51,19.99v.31c0,.18-.03.4-.09.66-.06.26-.15.53-.28.82-.13.29-.32.56-.57.81-.57.57-1.37.85-2.4.85s-1.79-.28-2.35-.85c-.25-.25-.45-.53-.57-.83-.13-.31-.21-.59-.26-.86-.04-.27-.07-.5-.07-.7v-12.05h.47v12.18c0,.15.01.29.04.43.03.25.1.51.21.78.11.27.28.52.51.76.46.47,1.13.71,2.01.71s1.58-.24,2.08-.73c.21-.22.37-.46.49-.72.11-.26.19-.5.24-.74.03-.14.05-.27.06-.41,0-.13.01-.27.01-.41v-11.86h.47v11.84Z"/>
      <path class="st2" d="M155.88,9.53v13.84h-.49v-15.13h.4l6.48,13.84.02-13.84h.47v15.13h-.41l-6.48-13.84ZM155.72,8.24h-.16.16ZM162.61,23.36h-.16.16Z"/>
    </g>
    <g>
      <path class="st0" d="M86.82,28.73h3.84c.46,0,.91.07,1.33.22.43.15.8.36,1.13.64.82.7,1.23,1.67,1.23,2.91v9.4c0,1.28-.41,2.25-1.23,2.92-.33.28-.7.49-1.13.64-.42.15-.87.22-1.33.22h-3.84v-16.96ZM93.81,32.51c0-.56-.09-1.05-.27-1.47-.18-.42-.42-.76-.72-1.03-.3-.26-.63-.46-1.01-.59-.37-.13-.76-.2-1.15-.2h-3.3v15.98h3.3c.39,0,.78-.06,1.15-.19.38-.12.72-.32,1.01-.59.3-.27.54-.61.72-1.03.18-.41.27-.9.27-1.48v-9.4Z"/>
      <path class="st0" d="M109.05,45.2v.49h-7.22v-16.96h7.22v.49h-6.68v8.77h5.15v.49h-5.15v6.72h6.68Z"/>
      <path class="st0" d="M117.11,45.08c-.43-.34-.75-.8-.96-1.38-.21-.57-.32-1.19-.32-1.84h.54c0,.75.12,1.35.35,1.82.23.47.52.83.87,1.09.35.26.73.43,1.14.51.41.09.79.13,1.15.13.44,0,.88-.06,1.32-.18.43-.12.83-.3,1.18-.56.35-.26.63-.59.84-1.01.21-.42.32-.93.32-1.54,0-.7-.11-1.31-.33-1.83-.22-.52-.52-.98-.88-1.39-.37-.4-.78-.77-1.24-1.09-.46-.32-.93-.63-1.41-.94-.46-.3-.9-.59-1.32-.88-.42-.29-.8-.61-1.14-.97-.75-.82-1.13-1.74-1.13-2.75v-.36c0-.2.03-.42.09-.69.06-.26.16-.55.3-.86.14-.31.35-.6.64-.86.66-.65,1.6-.98,2.79-.98s2.13.33,2.74.98c.25.28.44.59.55.92.11.34.18.65.22.96.03.3.05.56.04.77,0,.21-.01.32-.01.34h-.54c.02-.37,0-.7-.03-.98-.04-.28-.1-.57-.19-.88-.1-.3-.25-.57-.48-.8-.26-.26-.57-.47-.95-.61-.38-.14-.83-.21-1.36-.21-1.05,0-1.84.27-2.39.82-.24.23-.42.49-.54.77-.12.28-.21.54-.26.78-.05.24-.08.53-.08.88,0,.51.1.97.28,1.37.19.4.44.76.75,1.1.31.33.66.64,1.07.92.4.28.82.56,1.25.84.5.31.98.64,1.46.98.48.34.91.73,1.31,1.17.89,1,1.34,2.16,1.34,3.5,0,1.26-.46,2.24-1.39,2.94-.75.56-1.69.84-2.82.84-.39,0-.84-.05-1.34-.15-.51-.1-.98-.32-1.42-.66Z"/>
      <path class="st0" d="M131.25,45.69v-16.96h.54v16.96h-.54Z"/>
      <path class="st0" d="M143.77,38.32v-.49l3.35.02v4.19s0,.17,0,.37c-.01.2-.04.44-.1.72-.06.28-.17.58-.32.91-.15.32-.37.63-.64.91-.67.65-1.58.98-2.74.98s-2.07-.32-2.69-.96c-.31-.3-.53-.62-.68-.96-.14-.34-.24-.67-.3-.97-.05-.3-.07-.56-.06-.78,0-.22.01-.35.01-.4v-9.59c0-1.24.41-2.22,1.23-2.92.33-.26.71-.47,1.14-.63.44-.16.88-.23,1.34-.23.43,0,.86.07,1.29.22.43.15.83.39,1.19.72.36.34.65.75.87,1.26.22.51.33,1.11.33,1.81h-.54c0-.61-.09-1.13-.28-1.57-.19-.44-.43-.81-.73-1.1-.3-.29-.64-.5-1.01-.64-.37-.14-.75-.21-1.13-.21s-.78.06-1.16.19c-.38.13-.73.32-1.02.6-.3.27-.54.62-.72,1.03-.18.41-.27.9-.27,1.46v9.65c0,.39.02.72.06.99.04.27.13.57.25.88.13.31.32.59.58.84.55.55,1.31.82,2.28.82s1.79-.27,2.36-.82c.25-.25.45-.52.58-.82.13-.29.22-.57.27-.83.05-.26.07-.57.07-.92v-3.71l-2.81-.02Z"/>
      <path class="st0" d="M154.93,30.17v15.52h-.56v-16.96h.46l7.37,15.51.03-15.51h.54v16.96h-.46l-7.37-15.52ZM154.75,28.73h-.18.18ZM162.59,45.69h-.18.18Z"/>
    </g>
    <g>
      <g>
        <path class="st4" d="M87.5,53.71c-.07.49-.2.96-.36,1.4l-.32-.13c.16-.35.29-.79.38-1.33l.3.06ZM89.09,53.34l-.31.09c-.02-.11-.05-.22-.1-.34-.65.17-1.22.29-1.72.37l-.11-.33c.48-.39.89-.83,1.23-1.34-.57.08-.93.13-1.08.15l-.09-.29c.41-.45.76-1.02,1.04-1.71l.31.09c-.23.55-.53,1.07-.91,1.57.29-.02.6-.06.93-.12.17-.25.32-.5.45-.76l.31.11c-.55.98-1.1,1.73-1.68,2.24.35-.05.76-.14,1.21-.26-.05-.15-.11-.28-.17-.4l.29-.1c.16.31.3.64.4,1.01ZM88.32,54.86l-.34.06c-.02-.38-.08-.79-.18-1.22l.31-.05c.1.38.17.78.2,1.21ZM89.08,54.59l-.31.1c-.04-.28-.13-.63-.28-1.05l.31-.09c.14.38.24.72.29,1.04ZM92.34,54.65c0,.1-.04.19-.11.27-.07.08-.16.13-.26.15-.1.02-.29.02-.59.01l-.14-.32c.14,0,.26,0,.35,0,.2,0,.31-.01.35-.03.04-.02.06-.06.06-.12v-4.22h-2.45v4.69h-.33v-4.97h3.11v4.55ZM91.82,51.86h-2.07v-.29h.52c-.07-.23-.17-.48-.32-.75l.31-.11c.13.26.25.55.36.86h.36c.15-.25.3-.54.43-.87l.3.11c-.06.16-.18.42-.36.76h.48v.29ZM91.82,52.93h-1.38v.87c0,.1.05.15.16.15h1.14v.28h-1.17c-.3,0-.45-.14-.45-.42v-.88h-.36v-.28h1.01c-.05-.14-.13-.32-.25-.54l.32-.1c.07.15.16.36.27.64h.72v.28Z"/>
        <path class="st4" d="M99.1,50.38h-2.58c-.07.19-.16.4-.28.64h2.15v2.9h-2.84l.19.18c-.7.48-1.34.81-1.93,1l-.23-.27c.68-.21,1.3-.51,1.88-.92h-1.26v-2.9h1.67c.13-.23.22-.45.28-.64h-2.68v-.3h5.62v.3ZM98.05,51.83v-.52h-3.51v.52h3.51ZM98.05,52.71v-.58h-3.51v.58h3.51ZM98.05,53.61v-.6h-3.51v.6h3.51ZM98.99,54.8l-.18.29c-.57-.31-1.22-.56-1.95-.74l.17-.26c.78.22,1.43.45,1.96.71Z"/>
      </g>
      <g>
        <path class="st4" d="M108.4,53.18h-2.64v1.93h-.35v-1.93h-2.64v-.31h2.64v-2.47h-2.48v-.31h5.32v.31h-2.49v2.47h2.64v.31ZM104.49,52.32l-.31.15c-.13-.37-.4-.83-.81-1.38l.28-.14c.4.47.68.92.85,1.38ZM107.87,51.06c-.2.49-.5.95-.91,1.38l-.32-.16c.4-.4.7-.85.92-1.34l.31.12Z"/>
        <path class="st4" d="M115.01,50.37h-2.54c-.14.3-.27.56-.4.76h2.5v3.93h-.34v-.35h-4.04v.35h-.34v-3.93h1.83c.2-.28.34-.53.42-.76h-2.69v-.29h5.61v.29ZM111.1,54.4v-2.96h-.92v2.96h.92ZM112.98,52.18v-.73h-1.53v.73h1.53ZM112.98,53.27v-.79h-1.53v.79h1.53ZM112.98,54.4v-.85h-1.53v.85h1.53ZM114.23,54.4v-2.96h-.92v2.96h.92Z"/>
      </g>
      <g>
        <path class="st4" d="M120.99,50.83h-2.29v-.31h1.01c-.06-.17-.15-.34-.26-.52l.3-.12c.13.19.23.4.31.64h.93v.31ZM120.81,52.55h-1.98v-.3h1.98v.3ZM120.82,51.69h-1.99v-.3h1.99v.3ZM120.72,54.96h-.33v-.32h-1.17v.43h-.34v-1.96h1.84v1.85ZM120.39,54.33v-.91h-1.17v.91h1.17ZM124.33,54.85l-.19.25c-.66-.2-1.16-.42-1.51-.68-.42.27-.93.48-1.55.65l-.2-.25c.65-.17,1.14-.37,1.47-.6-.45-.37-.77-.88-.97-1.5h-.22v-.3h2.71v.3c-.28.69-.6,1.19-.97,1.51.37.24.85.45,1.45.63ZM124.3,52.07h-.63c-.31,0-.46-.14-.46-.4v-1.27h-1.14c-.01.54-.09.95-.24,1.21-.15.26-.35.47-.61.62l-.25-.21c.26-.15.45-.35.59-.61.14-.26.2-.69.19-1.3h1.78v1.47c0,.13.07.2.22.2h.55v.3ZM123.48,52.72h-1.78c.22.58.53,1.01.91,1.31.39-.32.68-.76.87-1.31Z"/>
        <path class="st4" d="M128.01,50.95h-2.67v-.31h1.22c-.1-.2-.22-.41-.39-.63l.32-.12c.14.18.29.43.44.75h1.08v.31ZM127.68,51.79h-2.05v-.3h2.05v.3ZM127.68,52.62h-2.05v-.29h2.05v.29ZM127.68,55.03h-.33v-.29h-1.38v.33h-.34v-1.89h2.05v1.85ZM127.35,54.43v-.95h-1.38v.95h1.38ZM130.97,51.93h-1.29v3.15h-.35v-3.15h-1.29v-.31h1.29v-1.68h.35v1.68h1.29v.31Z"/>
      </g>
      <g>
        <path class="st4" d="M136.28,51.27h-.6v1.29c.18-.06.35-.13.51-.21l.06.29c-.3.13-.49.21-.57.24v1.83c0,.13-.04.23-.13.28-.09.05-.26.08-.52.08-.09,0-.18,0-.27,0l-.08-.26h.54c.1,0,.15-.05.15-.13v-1.66c-.27.11-.5.19-.69.25l-.09-.28c.15-.04.41-.13.78-.28v-1.42h-.73v-.28h.73v-1.06h.32v1.06h.6v.28ZM138.17,52.71h-.2v2.37h-.31v-.58c-.42.08-.91.16-1.46.25l-.06-.27.55-.08v-1.69h-.3v-.26h1.77v.26ZM140.19,52.05h-.68v.25h-.27l-.04-.25h-2.79v-.26h.63v-1.45h-.53v-.27h3.59v.27h-.58v1.45h.68v.26ZM137.66,53.07v-.36h-.66v.36h.66ZM137.66,53.7v-.35h-.66v.35h.66ZM137.66,54.22v-.26h-.66v.38c.27-.04.49-.08.66-.12ZM139.19,50.63v-.29h-1.84v.29h1.84ZM139.19,51.2v-.32h-1.84v.32h1.84ZM139.19,51.79v-.34h-1.84v.34h1.84ZM140.26,54.61h-.34v.47h-.32v-.47h-1.34v-.26h.3v-1.65h-.21v-.26h1.83v.26h-.26v1.65h.34v.26ZM139.6,53.07v-.37h-.73v.37h.73ZM139.6,53.7v-.35h-.73v.35h.73ZM139.6,54.35v-.39h-.73v.39h.73Z"/>
        <path class="st4" d="M142.41,53.96c-.24.3-.55.58-.93.84l-.23-.23c.32-.2.62-.46.91-.78l.25.17ZM144.82,52.21h-3.56v-.28h1.65c-.07-.16-.13-.28-.19-.36h-1.08v-1.5h2.77v1.5h-1.31c.05.09.1.21.17.36h1.54v.28ZM144.37,53.59h-1.14v1.07c0,.14-.05.25-.14.31-.09.06-.25.09-.46.09h-.25l-.11-.28c.22,0,.37,0,.48,0,.1,0,.15-.06.15-.18v-1.02h-1.18v-1.02h2.65v1.02ZM144.08,50.65v-.3h-2.1v.3h2.1ZM144.08,51.28v-.33h-2.1v.33h2.1ZM144.04,53.31v-.46h-2v.46h2ZM144.48,54.58l-.29.17c-.15-.28-.34-.54-.56-.8l.27-.17c.21.21.4.47.58.79ZM146.95,53.41c-.54.67-1.25,1.23-2.14,1.68l-.21-.25c.96-.49,1.66-1.04,2.1-1.65l.25.23ZM146.78,50.1c-.48.53-1.1.97-1.87,1.31l-.21-.25c.88-.4,1.49-.83,1.84-1.28l.23.21ZM146.84,51.69c-.43.51-1.08.97-1.93,1.39l-.2-.26c.85-.41,1.48-.86,1.89-1.34l.24.21Z"/>
      </g>
      <g>
        <path class="st4" d="M152.55,51.22c-.18.27-.39.54-.63.81v3.01h-.33v-2.65c-.23.23-.52.46-.84.71l-.18-.24c.8-.64,1.37-1.24,1.7-1.8l.28.17ZM152.4,50.05c-.39.44-.93.85-1.62,1.23l-.2-.24c.71-.4,1.22-.79,1.54-1.17l.28.19ZM156.21,51.94h-1.02v2.61c0,.13-.04.23-.11.3-.07.07-.15.12-.25.13-.09.02-.28.02-.56.02-.24,0-.43,0-.58-.01l-.14-.32c.18,0,.38.01.58.01.38,0,.59,0,.63-.02.04-.01.06-.05.06-.1v-2.64h-2.28v-.31h3.66v.31ZM155.89,50.45h-3.07v-.31h3.07v.31Z"/>
        <path class="st4" d="M159.5,50.95l-.26.2c-.21-.25-.49-.52-.85-.79-.22.34-.47.66-.74.95h1.53v.27h-.65v.64h.83v.28h-.83v1.83c.08-.01.32-.08.74-.2l.02.3c-.81.23-1.47.4-1.99.49l-.11-.29c.28-.04.62-.12,1.04-.22v-1.91h-.89v-.28h.89v-.64h-.62v-.22c-.06.06-.14.12-.22.19l-.22-.22c.46-.41.85-.91,1.17-1.49l.28.15s-.03.06-.07.13c.37.27.69.55.96.84ZM157.91,54.08l-.33.08c-.04-.41-.13-.8-.26-1.17l.29-.1c.12.34.22.74.29,1.18ZM159.34,52.97c-.07.39-.17.73-.27,1.01l-.31-.09c.13-.29.22-.62.28-1l.3.08ZM162.51,54.63c0,.14-.05.24-.14.3-.1.06-.29.09-.59.09-.11,0-.24,0-.39-.01l-.11-.31c.19.01.38.01.57.01.15,0,.24,0,.27-.03.03-.02.05-.04.05-.08v-1.28c-.6.28-1.28.57-2.03.86l-.17-.21c-.08.35-.24.7-.48,1.04l-.28-.19c.36-.48.53-1.14.53-1.98v-1.22h1.2v-1.76h.33v1.76h1.23v2.99ZM160.43,51.19l-.3.14c-.09-.3-.29-.69-.6-1.16l.3-.15c.28.44.49.83.6,1.18ZM162.18,53.02v-1.09h-2.09v.49c.67.02,1.26.09,1.75.21l-.11.29c-.49-.12-1.04-.19-1.64-.21,0,.39-.03.8-.1,1.22.86-.3,1.59-.6,2.19-.9ZM162.77,50.16c-.25.48-.49.87-.73,1.16l-.3-.16c.26-.31.51-.69.74-1.16l.29.16Z"/>
      </g>
    </g>
  </g>
  <rect class="st4" x="7.01" y="5.78" width="74.79" height="49.66"/>
  <polygon class="st3" points="30.99 31.58 20.46 31.58 17.4 31.58 17.4 34.64 17.4 48.23 20.46 48.23 20.46 34.64 30.99 34.64 30.99 48.23 34.05 48.23 34.05 34.64 34.05 31.58 30.99 31.58"/>
  <polygon class="st3" points="34.05 16.01 34.05 12.95 20.46 12.95 17.4 12.95 17.4 16.01 17.4 19.87 17.4 22.46 17.4 22.93 30.99 22.93 30.99 26.79 17.4 26.79 17.4 29.85 34.05 29.85 34.05 29.6 34.05 26.79 34.05 22.93 34.05 19.87 30.99 19.87 20.46 19.87 20.46 16.01 34.05 16.01"/>
  <polygon class="st3" points="49.67 31.58 49.67 38.4 39.14 38.4 39.14 31.58 36.08 31.58 36.08 38.4 36.08 41.46 39.14 41.46 49.67 41.46 49.67 45.21 36.08 45.21 36.08 48.28 52.73 48.28 52.73 48.23 52.73 45.21 52.73 41.46 52.73 38.4 52.73 31.58 49.67 31.58"/>
  <g>
    <rect class="st1" x="39.14" y="16.01" width="10.52" height="10.78"/>
    <path class="st3" d="M49.67,12.95h-13.59v16.9h16.65V12.95h-3.06ZM49.67,26.79h-10.52v-10.78h10.52v10.78Z"/>
  </g>
  <g>
    <rect class="st1" x="60.77" y="22.93" width="7.57" height="3.86"/>
    <rect class="st1" x="57.82" y="34.64" width="10.52" height="10.57"/>
    <rect class="st1" x="60.77" y="16.01" width="7.57" height="3.86"/>
    <path class="st3" d="M68.34,12.95h-13.59v3.06h2.95v3.86h-2.95v3.06h2.95v3.86h-2.95v3.06h2.95v1.73h-2.95v16.69h16.65v-16.69h-10.64v-1.73h10.64V12.95h-3.06ZM68.34,45.21h-10.52v-10.57h10.52v10.57ZM68.34,26.79h-7.57v-3.86h7.57v3.86ZM68.34,19.87h-7.57v-3.86h7.57v3.86Z"/>
  </g>
</svg>