<?xml version="1.0" encoding="UTF-8"?>
<svg id="Layer_1" data-name="Layer 1" xmlns="http://www.w3.org/2000/svg" viewBox="0 0 1305 525">
  <defs>
    <style>
      .cls-1 {
        letter-spacing: .2em;
      }

      .cls-2 {
        letter-spacing: .21em;
      }

      .cls-3 {
        letter-spacing: .2em;
      }

      .cls-4 {
        fill: #fff;
      }

      .cls-5 {
        fill: none;
      }

      .cls-6 {
        letter-spacing: .21em;
      }

      .cls-7 {
        font-size: 158.35px;
      }

      .cls-7, .cls-8, .cls-9, .cls-10 {
        fill: #5a7088;
      }

      .cls-7, .cls-9 {
        font-family: IvyEpicVariable-CondensedLight, 'IvyEpic Variable';
        font-variation-settings: 'wdth' 70, 'wght' 300, 'slnt' 0;
        font-weight: 300;
      }

      .cls-11 {
        letter-spacing: .18em;
      }

      .cls-12 {
        font-family: KozGoPr6N-Regular-90ms-RKSJ-H, 'Kozuka Gothic Pr6N';
      }

      .cls-12, .cls-13 {
        letter-spacing: .11em;
      }

      .cls-14 {
        letter-spacing: .21em;
      }

      .cls-8 {
        stroke: #000;
        stroke-miterlimit: 10;
        stroke-width: .19px;
      }

      .cls-9 {
        font-size: 119.52px;
      }

      .cls-15 {
        letter-spacing: .2em;
      }

      .cls-16 {
        letter-spacing: .11em;
      }

      .cls-16, .cls-13 {
        font-family: Audrey-Medium, Audrey;
        font-weight: 500;
      }

      .cls-10 {
        font-size: 54.4px;
      }
    </style>
  </defs>
  <rect class="cls-8" x="57.16" y="72.96" width="575.02" height="379.08"/>
  <g>
    <rect class="cls-5" x="445.24" y="292.72" width="78.89" height="79.23"/>
    <rect class="cls-5" x="305.22" y="153.05" width="78.89" height="80.77"/>
    <rect class="cls-5" x="467.36" y="153.05" width="56.77" height="28.91"/>
    <rect class="cls-5" x="467.36" y="204.91" width="56.77" height="28.91"/>
    <polygon class="cls-4" points="165.2 269.77 142.25 269.77 142.25 292.72 142.25 394.57 165.2 394.57 165.2 292.72 244.09 292.72 244.09 394.57 267.05 394.57 267.05 292.72 267.05 269.77 244.09 269.77 165.2 269.77"/>
    <polygon class="cls-4" points="142.25 130.09 142.25 153.05 142.25 181.96 142.25 201.37 142.25 204.91 244.09 204.91 244.09 233.82 142.25 233.82 142.25 256.78 267.05 256.78 267.05 254.9 267.05 233.82 267.05 204.91 267.05 181.96 244.09 181.96 165.2 181.96 165.2 153.05 267.05 153.05 267.05 130.09 165.2 130.09 142.25 130.09"/>
    <polygon class="cls-4" points="407.07 269.77 384.11 269.77 384.11 320.86 305.22 320.86 305.22 269.77 282.27 269.77 282.27 320.86 282.27 343.81 305.22 343.81 384.11 343.81 384.11 371.95 282.27 371.95 282.27 394.91 407.07 394.91 407.07 371.95 407.07 371.95 407.07 343.81 407.07 343.81 407.07 320.86 407.07 320.86 407.07 269.77"/>
    <path class="cls-4" d="M384.11,130.09h-101.85v126.69h124.8v-22.96h0v-80.77h0v-22.96h-22.96ZM384.11,233.82h-78.89v-80.77h78.89v80.77Z"/>
    <path class="cls-4" d="M524.13,130.09h-101.85v22.96h22.13v28.91h-22.13v22.96h22.13v28.91h-22.13v22.96h22.13v12.99h-22.13v125.14h124.8v-125.14h-79.72v-12.99h79.72v-126.69h-22.96ZM524.13,371.95h-78.89v-79.23h78.89v79.23ZM524.13,233.82h-56.77v-28.91h56.77v28.91ZM524.13,181.96h-56.77v-28.91h56.77v28.91Z"/>
  </g>
  <text class="cls-9" transform="translate(702.6 189.38) scale(.94 1)"><tspan class="cls-1" x="0" y="0">S</tspan><tspan class="cls-3" x="78.16" y="0">ONY</tspan><tspan class="cls-11" x="345.4" y="0">K</tspan><tspan class="cls-15" x="426.79" y="0">UN</tspan></text>
  <text class="cls-7" transform="translate(697.36 336.9) scale(.9 1)"><tspan class="cls-14" x="0" y="0">D</tspan><tspan class="cls-2" x="122.56" y="0">E</tspan><tspan class="cls-6" x="226.91" y="0">SIGN</tspan></text>
  <text class="cls-10" transform="translate(705.38 429.8)"><tspan class="cls-12" x="0" y="0">網頁</tspan><tspan class="cls-16" x="120.33" y="0"> </tspan><tspan class="cls-12" x="140.46" y="0">品牌</tspan><tspan class="cls-13" x="260.79" y="0"> </tspan><tspan class="cls-12" x="280.92" y="0">設計</tspan><tspan class="cls-16" x="401.25" y="0"> </tspan><tspan class="cls-12" x="421.38" y="0">行銷</tspan></text>
</svg>