<?xml version="1.0" encoding="UTF-8"?>
<svg id="Layer_1" data-name="Layer 1" xmlns="http://www.w3.org/2000/svg" viewBox="0 0 1305 525">
  <defs>
    <style>
      .cls-1 {
        fill: #fff;
      }

      .cls-2 {
        fill: none;
      }

      .cls-3, .cls-4 {
        fill: #5a7088;
      }

      .cls-4 {
        stroke: #000;
        stroke-miterlimit: 10;
        stroke-width: .19px;
      }
    </style>
  </defs>
  <rect class="cls-4" x="57.16" y="72.96" width="575.02" height="379.08"/>
  <g>
    <rect class="cls-2" x="445.24" y="292.72" width="78.89" height="79.23"/>
    <rect class="cls-2" x="305.22" y="153.05" width="78.89" height="80.77"/>
    <rect class="cls-2" x="467.36" y="153.05" width="56.77" height="28.91"/>
    <rect class="cls-2" x="467.36" y="204.91" width="56.77" height="28.91"/>
    <polygon class="cls-1" points="165.2 269.77 142.25 269.77 142.25 292.72 142.25 394.57 165.2 394.57 165.2 292.72 244.09 292.72 244.09 394.57 267.05 394.57 267.05 292.72 267.05 269.77 244.09 269.77 165.2 269.77"/>
    <polygon class="cls-1" points="142.25 130.09 142.25 153.05 142.25 181.96 142.25 201.37 142.25 204.91 244.09 204.91 244.09 233.82 142.25 233.82 142.25 256.78 267.05 256.78 267.05 254.9 267.05 233.82 267.05 204.91 267.05 181.96 244.09 181.96 165.2 181.96 165.2 153.05 267.05 153.05 267.05 130.09 165.2 130.09 142.25 130.09"/>
    <polygon class="cls-1" points="407.07 269.77 384.11 269.77 384.11 320.86 305.22 320.86 305.22 269.77 282.27 269.77 282.27 320.86 282.27 343.81 305.22 343.81 384.11 343.81 384.11 371.95 282.27 371.95 282.27 394.91 407.07 394.91 407.07 371.95 407.07 371.95 407.07 343.81 407.07 343.81 407.07 320.86 407.07 320.86 407.07 269.77"/>
    <path class="cls-1" d="M384.11,130.09h-101.85v126.69h124.8v-22.96h0v-80.77h0v-22.96h-22.96ZM384.11,233.82h-78.89v-80.77h78.89v80.77Z"/>
    <path class="cls-1" d="M524.13,130.09h-101.85v22.96h22.13v28.91h-22.13v22.96h22.13v28.91h-22.13v22.96h22.13v12.99h-22.13v125.14h124.8v-125.14h-79.72v-12.99h79.72v-126.69h-22.96ZM524.13,371.95h-78.89v-79.23h78.89v79.23ZM524.13,233.82h-56.77v-28.91h56.77v28.91ZM524.13,181.96h-56.77v-28.91h56.77v28.91Z"/>
  </g>
  <g>
    <path class="cls-3" d="M715.52,187.77c-3.54-2.03-6.51-4.72-8.89-8.07l2.57-6.1c2.39,3.11,5.03,5.58,7.94,7.41,2.91,1.83,6,2.75,9.29,2.75,2.83,0,5.39-.66,7.66-1.97,2.27-1.31,4.08-3.15,5.43-5.5,1.34-2.35,2.01-4.96,2.01-7.83,0-3.66-1.14-7.07-3.41-10.22-2.28-3.15-6.13-6.31-11.58-9.5l-2.35-1.55c-3.66-2.15-6.66-4.48-9.01-6.99-2.35-2.51-4.14-5.2-5.37-8.07s-1.85-5.82-1.85-8.84c0-4.38.91-8.27,2.74-11.65,1.83-3.39,4.34-6.01,7.55-7.89,3.21-1.87,6.79-2.81,10.74-2.81s7.87.98,11.3,2.93c3.43,1.95,6.38,4.52,8.84,7.71l-2.57,6.09c-2.46-3.03-5.09-5.4-7.89-7.11-2.8-1.71-5.65-2.57-8.56-2.57s-5.3.62-7.38,1.85c-2.09,1.24-3.73,2.95-4.92,5.14-1.19,2.19-1.79,4.72-1.79,7.59,0,2.23.45,4.34,1.34,6.33.9,1.99,2.33,3.96,4.31,5.92,1.97,1.95,4.49,3.84,7.55,5.68l2.46,1.43c6.19,3.75,10.72,7.73,13.59,11.95,2.87,4.22,4.31,8.89,4.31,13.98,0,4.3-.97,8.21-2.91,11.71-1.94,3.51-4.61,6.26-8,8.25-3.39,1.99-7.14,2.99-11.24,2.99-4.4,0-8.37-1.02-11.91-3.05Z"/>
    <path class="cls-3" d="M792.88,185.02c-4.18-3.86-7.31-9.18-9.4-15.96-2.09-6.77-3.13-14.5-3.13-23.19s1.04-16.41,3.13-23.19c2.09-6.77,5.22-12.09,9.4-15.96,4.18-3.86,9.32-5.8,15.44-5.8s11.26,1.91,15.44,5.74c4.18,3.82,7.29,9.12,9.34,15.9,2.05,6.77,3.08,14.54,3.08,23.31s-1.03,16.53-3.08,23.31c-2.05,6.77-5.17,12.07-9.34,15.9-4.18,3.83-9.32,5.74-15.44,5.74s-11.26-1.93-15.44-5.8ZM819.17,179.04c2.91-3.15,5.05-7.57,6.43-13.27,1.38-5.7,2.07-12.33,2.07-19.9s-.69-14.2-2.07-19.9c-1.38-5.7-3.52-10.12-6.43-13.27-2.91-3.15-6.53-4.72-10.85-4.72s-7.94,1.57-10.85,4.72c-2.91,3.15-5.07,7.57-6.49,13.27-1.42,5.7-2.12,12.33-2.12,19.9s.71,14.2,2.12,19.9c1.42,5.7,3.58,10.12,6.49,13.27,2.91,3.15,6.52,4.72,10.85,4.72s7.94-1.57,10.85-4.72Z"/>
    <path class="cls-3" d="M870.52,102.37h8.28l35.91,76.61-3.02.36v-76.97h7.16v87.01h-7.72l-35.8-76.61,2.35-.36v76.97h-7.16v-87.01Z"/>
    <path class="cls-3" d="M951.06,102.37h8.73l19.02,51.51h-4.92l19.58-51.51h7.61l-21.7,55.22h-6.71l-21.59-55.22ZM971.98,150.9h8.05v38.48h-8.05v-38.48Z"/>
    <path class="cls-3" d="M1033.17,102.37h8.05v87.01h-8.05v-87.01ZM1037.09,153.88l33.67-51.51h7.94l-24.95,38.37-1.57,1.08-12.64,19.36-2.46-7.29ZM1048.16,139.78l6.82-3.11,24.83,52.71h-8.5l-23.16-49.6Z"/>
    <path class="cls-3" d="M1119.2,187.53c-3.43-2.19-6-5.26-7.72-9.2-1.72-3.94-2.57-8.58-2.57-13.92v-62.03h8.05v62.27c0,5.98,1.23,10.62,3.69,13.92,2.46,3.31,6.23,4.96,11.3,4.96s8.74-1.65,11.24-4.96c2.5-3.3,3.75-7.99,3.75-14.04v-62.15h7.61v62.03c0,5.34-.88,9.98-2.63,13.92-1.75,3.94-4.33,7.01-7.72,9.2-3.39,2.19-7.55,3.29-12.47,3.29s-9.1-1.1-12.53-3.29Z"/>
    <path class="cls-3" d="M1191.02,102.37h8.28l35.91,76.61-3.02.36v-76.97h7.16v87.01h-7.72l-35.8-76.61,2.35-.36v76.97h-7.16v-87.01Z"/>
  </g>
  <g>
    <path class="cls-3" d="M706.63,221.62h27.52c8.37,0,15.35,2.38,20.96,7.13,5.61,4.75,9.77,11.46,12.48,20.11,2.71,8.66,4.06,18.79,4.06,30.4s-1.36,21.72-4.06,30.32c-2.71,8.61-6.87,15.31-12.48,20.11-5.61,4.8-12.6,7.21-20.96,7.21h-27.52v-115.28ZM712.91,327.56h20.25c6.56,0,11.88-1.95,15.97-5.86,4.09-3.9,7.06-9.42,8.91-16.55,1.85-7.13,2.78-15.76,2.78-25.89s-.93-18.76-2.78-25.89c-1.85-7.12-4.83-12.64-8.91-16.55-4.09-3.9-9.41-5.86-15.97-5.86h-20.11l3.85-3.64v103.88l-3.99-3.64Z"/>
    <path class="cls-3" d="M817.01,221.62h48.63v9.34h-42.21l3.85-3.8v104.2l-3.85-3.8h43.07v9.34h-49.49v-115.28ZM822,273.72h40.79v9.03h-40.79v-9.03Z"/>
    <path class="cls-3" d="M918.2,334.76c-4.52-2.69-8.3-6.25-11.34-10.69l3.28-8.08c3.04,4.12,6.42,7.39,10.13,9.82,3.71,2.43,7.65,3.64,11.84,3.64,3.61,0,6.87-.87,9.77-2.61,2.9-1.74,5.21-4.17,6.92-7.28,1.71-3.11,2.57-6.57,2.57-10.37,0-4.85-1.45-9.37-4.35-13.54-2.9-4.17-7.82-8.37-14.76-12.59l-3-2.06c-4.66-2.85-8.49-5.94-11.48-9.26s-5.28-6.89-6.85-10.69c-1.57-3.8-2.35-7.71-2.35-11.72,0-5.8,1.16-10.95,3.49-15.44,2.33-4.49,5.54-7.97,9.63-10.45,4.09-2.48,8.65-3.72,13.69-3.72s10.03,1.29,14.4,3.88c4.37,2.59,8.13,5.99,11.27,10.21l-3.28,8.08c-3.14-4.01-6.49-7.15-10.05-9.42-3.57-2.27-7.2-3.41-10.91-3.41s-6.75.82-9.41,2.46c-2.66,1.64-4.75,3.91-6.27,6.81-1.52,2.91-2.28,6.25-2.28,10.06,0,2.96.57,5.75,1.71,8.39,1.14,2.64,2.97,5.25,5.49,7.84,2.52,2.59,5.73,5.09,9.63,7.52l3.14,1.9c7.89,4.96,13.67,10.24,17.33,15.83,3.66,5.6,5.49,11.77,5.49,18.53,0,5.7-1.24,10.87-3.71,15.52-2.47,4.65-5.87,8.29-10.2,10.93-4.33,2.64-9.11,3.96-14.33,3.96-5.61,0-10.67-1.35-15.19-4.04Z"/>
    <path class="cls-3" d="M1006.54,221.62h10.27v115.28h-10.27v-115.28Z"/>
    <path class="cls-3" d="M1077.92,331.12c-5.09-5.12-8.94-12.17-11.55-21.14-2.62-8.97-3.92-19.21-3.92-30.72s1.38-22.35,4.14-31.27c2.76-8.92,6.82-15.86,12.19-20.82,5.37-4.96,11.81-7.44,19.32-7.44s14.14,2.51,19.32,7.52c5.18,5.01,9.01,11.9,11.48,20.66l-9.27,2.85c-2.09-7.18-4.87-12.64-8.34-16.39-3.47-3.75-7.87-5.62-13.19-5.62s-10.15,2.11-13.9,6.33c-3.76,4.22-6.58,10.08-8.49,17.58-1.9,7.5-2.85,16.21-2.85,26.13s.95,19,2.85,26.6c1.9,7.6,4.8,13.51,8.7,17.74,3.9,4.22,8.65,6.33,14.26,6.33,4.18,0,7.92-1.24,11.19-3.72,3.28-2.48,5.87-6.1,7.77-10.85,1.9-4.75,2.85-10.29,2.85-16.63v-17.42l4.42,4.91h-25.53v-9.03h30.23v60.17h-8.41v-20.43l1.43,1.74c-2.38,6.55-5.9,11.61-10.55,15.2-4.66,3.59-9.84,5.38-15.54,5.38-7.32,0-13.53-2.56-18.61-7.68Z"/>
    <path class="cls-3" d="M1176.82,221.62h10.55l45.78,101.5-3.85.47v-101.98h9.13v115.28h-9.84l-45.64-101.5,3-.47v101.98h-9.13v-115.28Z"/>
  </g>
  <g>
    <path class="cls-3" d="M722.68,408.04c-.92-1.85-2.01-3.75-3.1-5.39l2.72-1.14c2.45,3.54,4.95,8.27,5.88,11.37l-2.88,1.36c-.27-.98-.71-2.12-1.25-3.37l-4.79.27v23.28h-3.26v-23.12c-2.88.16-5.49.27-7.56.33-.11.38-.43.6-.82.71l-.98-4.08h3.75c1.2-1.52,2.45-3.26,3.75-5.11-1.63-2.5-4.46-5.77-6.96-8.16,1.14-1.2,1.52-1.74,1.9-2.34.6.54,1.2,1.09,1.79,1.69,1.79-3.16,3.7-7.4,4.84-10.44l3.92,1.63c-.16.33-.6.43-1.2.43-1.36,3.1-3.59,7.45-5.55,10.5,1.2,1.31,2.34,2.61,3.16,3.81,2.23-3.48,4.3-7.13,5.82-10.17l3.81,1.79c-.16.27-.6.44-1.2.44-2.72,4.68-6.96,11.15-10.72,15.88l8.92-.16ZM713.97,416.2c-.11.49-.54.6-1.03.54-.71,4.57-1.9,9.85-3.48,13.06-.65-.44-1.85-.98-2.67-1.36,1.52-3.05,2.61-8.27,3.26-13.22l3.92.98ZM724.74,426.54c-.49-2.83-1.9-7.18-3.37-10.5l2.77-.87c1.58,3.32,2.99,7.62,3.48,10.39l-2.88.98ZM755.81,386.55v43.57c0,3.86-1.58,4.41-9.03,4.3-.16-.87-.65-2.39-1.09-3.32,1.31.05,2.56.05,3.54.05,2.83,0,3.15,0,3.15-1.03v-40.31h-20.72v44.71h-3.37v-47.98h27.53ZM738.62,420.93c0,1.47.22,1.9,1.3,1.9h6.85c.87,0,2.34-.05,3.1-.22.11.82.22,2.23.33,2.99-.71.22-2.01.22-3.37.22h-6.96c-3.64,0-4.46-1.25-4.46-4.95v-8.32h-2.45v-2.99h7.18v-5.93l4.24.27c-.05.33-.33.6-.98.71v4.95h7.62v2.99h-12.4v8.38ZM733.45,403.58v-2.99h3.32c-.33-2.07-1.42-5.28-2.56-7.72l2.39-.82c1.3,2.39,2.39,5.6,2.77,7.67l-2.45.87h8.7l-1.85-.76c1.09-2.23,2.45-5.82,3.1-8.16l3.65,1.31c-.16.27-.54.49-1.09.49-.82,2.01-2.18,5.06-3.32,7.13h4.57v2.99h-17.24Z"/>
    <path class="cls-3" d="M788.83,426.92c-.22.16-.6.27-1.09.33-4.03,2.45-11.31,5.44-17.08,7.13-.54-.82-1.74-2.07-2.5-2.83,5.77-1.58,13.22-4.57,17.03-7.07l3.64,2.45ZM775.44,395.15h13.98c.38-1.52.87-3.32,1.14-4.95h-21.43v-3.43h47.27v3.43h-21.81c-.38,1.47-.92,3.32-1.47,4.95h17.9v28.01h-35.58v-28.01ZM807.27,403.53v-5.38h-28.18v5.38h28.18ZM807.27,411.8v-5.38h-28.18v5.38h28.18ZM807.27,420.17v-5.49h-28.18v5.49h28.18ZM814.12,434.53c-3.97-2.23-10.55-5.11-17.08-7.34l2.5-2.39c6.58,2.12,13.6,5,17.9,7.18l-3.32,2.56Z"/>
    <path class="cls-3" d="M850.3,434.37v-23.66h19.75v23.17h-3.64v-2.23h-12.62v2.72h-3.48ZM866.4,414.24h-12.62v13.87h12.62v-13.87ZM887.23,385.79v19.15h-28.18v-19.15h28.18ZM883.53,401.46v-12.13h-20.94v12.13h20.94ZM875.86,410.71h20.4v23.23h-3.64v-2.34h-13.22v2.72h-3.54v-23.61ZM879.4,428.11h13.22v-13.87h-13.22v13.87Z"/>
    <path class="cls-3" d="M914.54,402.6v3.92c0,1.52,0,3.05-.05,4.68h10.77v22.25h-3.21v-19.04h-7.67c-.38,6.91-1.31,14.14-3.59,20.02-.76-.38-2.18-.98-3.1-1.25,3.21-7.78,3.64-18.6,3.64-26.6v-21.6l4.24.27c-.05.38-.38.6-1.03.71v13.38h5.6v-15.45l4.24.27c-.05.38-.33.65-1.03.71v14.47h5.17v3.26h-13.98ZM958.5,420.06v3.21h-9.19v11.15h-3.48v-11.15h-18.6v-3.21h18.6v-9.25l4.51.33c-.05.38-.33.6-1.03.71v8.21h9.19ZM956.59,409.95h-13.87c-1.85,3.37-5.11,6.47-10.77,8.98-.6-.65-1.69-1.69-2.45-2.12,4.62-1.96,7.51-4.35,9.36-6.85h-8.32v-20.18h7.51c.92-1.9,1.96-4.35,2.56-6.09l4.68,1.14c-.11.38-.49.6-1.14.6-.6,1.25-1.47,2.88-2.39,4.35h14.85v20.18ZM933.86,392.76v5.66h7.83v-5.66h-7.83ZM933.86,406.95h6.64c.76-1.9,1.09-3.86,1.14-5.71h-7.78v5.71ZM953.17,406.95v-5.71h-8.27c-.11,1.9-.33,3.81-.92,5.71h9.19ZM953.17,398.41v-5.66h-8.27v5.66h8.27Z"/>
    <path class="cls-3" d="M1008.93,393.08v3.05h-20.78v-3.05h20.78ZM1007.02,415.28v15.99h-13.11v2.56h-3.26v-18.55h16.37ZM990.7,403.47v-2.99h16.37v2.99h-16.37ZM990.7,410.87v-2.99h16.37v2.99h-16.37ZM1006.91,385.85v2.99h-15.88v-2.99h15.88ZM1003.76,418.38h-9.85v9.79h9.85v-9.79ZM1016.92,389v3.37c0,4.68-1.2,10.5-7.07,14.36-.54-.71-1.9-1.96-2.67-2.45,5.39-3.48,6.26-8.11,6.26-11.97v-6.69h17.13v13.76c0,1.2.16,1.41,1.14,1.41h3.05c1.03,0,1.2-.71,1.31-6.15.71.6,2.18,1.14,3.1,1.36-.27,6.42-1.2,8-4.03,8h-3.92c-3.21,0-4.13-.98-4.13-4.57v-10.44h-10.17ZM1033.68,407.66l2.39.98c-.05.27-.27.44-.43.6-1.85,6.47-5.17,11.7-9.41,15.72,3.7,2.88,8.05,5,13.06,6.26-.82.76-1.85,2.23-2.39,3.16-5.17-1.52-9.63-3.86-13.44-7.02-4.19,3.26-9.03,5.6-14.14,7.07-.38-.92-1.25-2.45-2.01-3.21,4.84-1.25,9.47-3.32,13.49-6.31-3.43-3.54-6.15-7.72-8.05-12.62l3.26-1.03c1.69,4.35,4.24,8.16,7.51,11.37,3.26-3.1,5.93-6.91,7.67-11.48h-21.49v-3.37h23.34l.65-.11Z"/>
    <path class="cls-3" d="M1070.07,393.08v3.05h-21.76v-3.05h21.76ZM1067.84,415.28v15.99h-13.71v2.56h-3.26v-18.55h16.97ZM1050.92,403.47v-2.99h17.08v2.99h-17.08ZM1050.92,410.87v-2.99h17.08v2.99h-17.08ZM1068,385.85v2.99h-16.81v-2.99h16.81ZM1064.52,418.38h-10.39v9.79h10.39v-9.79ZM1099.56,402.82v3.59h-12.62v28.01h-3.7v-28.01h-13.16v-3.59h13.16v-18.82l4.79.33c-.05.38-.33.65-1.09.76v17.73h12.62Z"/>
    <path class="cls-3" d="M1145.41,385.68c-.11.27-.54.49-1.2.38-3.16,3.97-8.81,9.14-13.65,12.57-.43-.82-1.47-2.23-2.12-2.94,4.57-2.99,9.95-7.83,12.73-11.8l4.24,1.79ZM1137.09,434.42v-23.94c-2.07,2.29-4.13,4.41-6.2,6.2-.49-.71-1.63-2.18-2.34-2.83,5.17-4.3,11.15-11.42,14.91-18.22l4.24,1.74c-.16.33-.6.54-1.25.44-1.63,2.72-3.54,5.49-5.6,8.16l.98.33c-.11.33-.44.6-1.09.71v27.42h-3.64ZM1179.14,403.15v3.54h-8.65v23.01c0,4.57-1.74,4.68-12.73,4.68-.16-1.03-.65-2.5-1.2-3.59,2.39.05,4.62.11,6.31.11,3.54,0,3.92,0,3.92-1.25v-22.96h-18.93v-3.54h31.28ZM1177.07,387.32v3.48h-27.14v-3.48h27.14Z"/>
    <path class="cls-3" d="M1201.94,425.94l9.08-1.52.16,3.05c-7.51,1.47-15.29,2.99-20.24,3.86-.05.43-.38.71-.76.82l-1.2-4.08c2.67-.38,5.98-.92,9.63-1.52v-16.21h-9.08v-3.26h9.08v-6.2h-5.98v-1.25c-.6.65-1.2,1.31-1.85,1.96-.6-.82-1.74-1.9-2.56-2.39,4.84-4.68,8.59-10.72,10.61-15.34l4.46.71c-.11.38-.44.65-1.09.65l-.05.05c3.48,2.77,7.51,6.53,9.52,8.98-1.25,1.47-1.74,2.18-2.18,2.88-1.85-2.45-5.55-6.04-8.87-8.92-1.69,2.94-3.75,6.26-6.36,9.46h14.09v3.21h-6.42v6.2h8.59v3.26h-8.59v15.61ZM1193.23,424.31c-.16-2.83-1.14-7.07-2.34-10.34l2.67-.71c1.25,3.26,2.23,7.51,2.5,10.23l-2.83.82ZM1210.48,414.13c-.16.33-.54.49-1.14.49-.71,2.61-2.07,6.64-3.21,9.19l-2.39-.92c1.03-2.67,2.39-7.07,3.05-10.01l3.7,1.25ZM1220.43,388.35c-.16.33-.54.49-1.14.49-1.52,4.3-4.08,8.98-6.69,11.97-.71-.6-1.9-1.47-2.77-1.9,2.56-2.72,4.95-7.34,6.42-11.8l4.19,1.25ZM1236.59,401.3v28.72c0,4.03-1.9,4.41-9.3,4.3-.11-.98-.65-2.5-1.2-3.48,1.63.05,3.16.11,4.24.11,2.45,0,2.72,0,2.72-1.03v-6.69h-16.05v11.1h-3.54v-33.02h9.41v-17.46l4.62.33c-.05.38-.33.65-1.03.71v16.43h10.12ZM1233.05,404.61h-16.05v6.09h16.05v-6.09ZM1217,420.06h16.05v-6.2h-16.05v6.2ZM1236.81,400.21c-1.25-3.21-4.41-8.11-7.4-11.75l2.94-1.52c2.99,3.54,6.26,8.38,7.56,11.53l-3.1,1.74Z"/>
  </g>
</svg>